<svg xmlns="http://www.w3.org/2000/svg" version="1.1" xmlns:xlink="http://www.w3.org/1999/xlink" xmlns:svgjs="http://svgjs.dev/svgjs" width="1500" height="1500" viewBox="0 0 1500 1500"><rect width="1500" height="1500" fill="#ffffff"></rect><g transform="matrix(0.6666666666666666,0,0,0.6666666666666666,250.00007343750008,187.66666666666674)"><svg viewBox="0 0 320 360" data-background-color="#ffffff" preserveAspectRatio="xMidYMid meet" height="1687" width="1500" xmlns="http://www.w3.org/2000/svg" xmlns:xlink="http://www.w3.org/1999/xlink"><g id="tight-bounds" transform="matrix(1,0,0,1,0.000023499999997511622,0)"><svg viewBox="0 0 320 360" height="360" width="320"><g><svg></svg></g><g><svg viewBox="0 0 320 360" height="360" width="320"><g><path transform="translate(-74.99272,-51.79039) scale(4.65793,4.65793)" d="M20.6 59.9l0.8 1-0.4-1.3c-0.1-0.6-0.8 0.1-0.4 0.3M21.5 59.3c0.3 0.5 0.6 1 0.6 1.5 0 0.7 0.6 1 1.1 1.2-0.7-0.8-1.1-3-1.7-2.7M59.9 16.9c1.7 0 3.3-0.2 5.1 0.2 4.4 1.1 8.1 3.3 10.6 6.4l7 11.2c0.3 2.8 0.9 5.9 0.8 9.3 0.7 0 0.6-1 1.4-1.2-0.8 2-1.2 4.5-1.4 7.4-0.5-1.6 0-4 0.1-5.3-0.7 1.1-1.1 0.3-1.1-0.2 0.1-0.8-0.3-0.7-0.6-1-1.1-1-1.8-2.1-2.6-3.8 0.5-1.3 0.6-3.2-1-4.2-0.5-0.3-1.1-0.8-1.4-1.6-0.4-1.1-1.1-2.4-0.9-4.1 0.1-0.5-1.5 1.1-2.4 0.4-3.9-2.7-7.8-5.8-12.5-8.4-2.5 0-4.3-0.9-5.2-2-0.8-1-0.2-2.3 1-2.4 0.7 0 1.5-0.2 2.1 0.2 0.1-0.4 0.5-0.9 1-0.9M50 14.6l0.2 0.1c1 0.2 1.5 1.6 2.6 1.1 0 0.7 0.1 1.4-0.1 1.9-0.3 0.8-1.2 0.8-1.9 0.8-6.7-0.4-10.6 2.4-14.7 4.8-1.1 0.7-2.3 1.2-3.2 2.1-4.3 4-9 7.7-10.1 15.1l-0.9 8.2c-0.1 0.9-1.1 1.8-0.9 2.9l0.7 4.9c-0.7-0.7-1.1 0.2-0.9 0.6 0.1 0.3 0.5 1.3 1.1 0.4 0.8 1.5 1.6 4.4 2.7 5.7 3.4 4 7.8 7.6 11.4 11.2 0.9-0.2 1.6-0.2 1.8-0.8 0.3 0.6-0.3 1.2-0.8 1.3 1.6 1 3.4 1.9 5.8 2.1 3.1 0.2 6 0.7 8.7 1.4 1.4-0.4 2.8-0.6 4.3-0.7 0.5 0 0.8-0.8 1.4-1l0.1-1c0.6 0.9 0.5-0.3 0.1-0.9 0.7 0.6 0.9 1.1 1.2 1.5 0-0.3 0.8-1.4 0.8-0.1l0.2-1.3c0.3-0.2 0.4 1.1 0.7 0.2 0.3-0.9 0.9-0.2 1.5-0.5-0.2 0.4-0.1 1.2 0.6 0.7l0.8-0.7c0.5 1.2 1.3 0.7 1.7 0.5 4.4-2.8 8.8-6.1 13-9.4l-0.1 1.3 0.5-1.6c0.5 0.5 0.9 0.1 1.1-0.2 0.6-1 1.4-2 2.7-2.9-1.6 4.3-3.5 7.7-5.9 10.5l-1 1.2c0 0.7-0.2 1.6-1 1.7-0.4 0.1-1.2-0.2-1.8 0.4-0.3 0.4 0.7 1.2-0.1 0.6-0.7-0.5-1.4 0-2.2 0.2-0.6 0.2 0.4 0.8 0.6 1.2 0.2 0.4 0.4 0.8 0.3 1.3l-1.1-1.2c-1.3 0.7-2.1 2-3.2 3-0.5 0.4-0.3 1.1-0.3 1.7-0.7 0-1.5-0.2-1.9 0.2-0.3 0.4-0.2 1-0.2 1.6-1-0.1-1.1-1.6-2-1.3-0.9 0.2-1.9 0.3-2.7 0.8 0.6 1.2-1 0.5-0.8 0.7-1.5-0.9-2.8-1.6-4.4-1-3.4-1.1-7.6-0.6-10.7-0.2 0-0.5 0.1-1-0.1-1.1-0.2 0.5-0.8 0.3-0.7 0.3-1.9-1.3-3.8-2.1-5.8-3.2-1.8 0.2-3.5-0.7-4-1.2-1.4-1.3-3-0.6-4.3-0.9-2.8-0.7-3.8-3.6-4.1-5.6-0.2-1-1-1.4-1.3-1.3-1.3-4.2-3.3-8-4.9-11.9-0.4-1-0.3-2-0.3-3.1 0.5 0.2 1 0.1 0.9-0.6-0.5-3.3-1.7-5.8-3-8.2 0.7-3.4 0.8-7.4 2.4-10.4 1.4-2.7 4-4.1 5.8-6.4 0.6-0.8 0.6-1.9 1.2-2.6 2-2 4-4.1 6.2-5.9 1-0.8 2.2 0 3.7-0.3 0.5-1.8 2.5-3.4 4.4-2.9 0.8 0.2 2.4-1.9 2.9-2.1 0.8-0.3 0.4 0.8 0.4 1.5 1.9-1.5 4.5-2.3 6.9-3.2" fill="#528265" fill-rule="nonzero" stroke="none" stroke-width="1" stroke-linecap="butt" stroke-linejoin="miter" stroke-miterlimit="10" stroke-dasharray="" stroke-dashoffset="0" font-family="none" font-weight="none" font-size="none" text-anchor="none" style="mix-blend-mode: normal" data-fill-palette-color="tertiary"></path></g><g transform="matrix(1,0,0,1,64,94.40770689442363)"><svg viewBox="0 0 192 171.18458621115275" height="171.18458621115275" width="192"><g><svg viewBox="0 0 192 171.18458621115275" height="171.18458621115275" width="192"><g><svg viewBox="0 0 192 171.18458621115275" height="171.18458621115275" width="192"><g transform="matrix(1,0,0,1,0,101.75274131132143)"><svg viewBox="0 0 192 69.4318448998313" height="69.4318448998313" width="192"><g id="textblocktransform"><svg viewBox="0 0 192 69.4318448998313" height="69.4318448998313" width="192" id="textblock"><g><svg viewBox="0 0 192 39.73254337706305" height="39.73254337706305" width="192"><g transform="matrix(1,0,0,1,0,0)"><svg width="192" viewBox="1.45 -38 236.28 48.9" height="39.73254337706305" data-palette-color="#528265"><path d="M11.9 0.75L11.9 0.75Q7.68 0.75 6.19-1.45 4.7-3.65 4.7-8.1L4.7-8.1 4.7-19.65 1.45-19.65 1.45-24.9 4.95-24.9 5.3-30.15 10.75-32.5 10.75-24.9 16.9-24.9 16.9-19.65 10.75-19.65 10.75-8.25Q10.75-6.08 11.36-5.24 11.98-4.4 13.05-4.4L13.05-4.4Q14.15-4.4 15.38-4.98 16.6-5.55 17.3-6.15L17.3-6.15 18.5-1.1Q17.73-0.55 16.49-0.14 15.25 0.28 13.99 0.51 12.73 0.75 11.9 0.75ZM29.15 0L22.9 0 22.9-24.9 28.55-24.9 28.85-20.5Q29.25-21.48 30.09-22.58 30.92-23.68 32.41-24.44 33.9-25.2 36.25-25.2L36.25-25.2Q36.97-25.2 37.52-25.1 38.07-25 38.55-24.8L38.55-24.8 37.15-18.25Q36.35-19.05 34.7-19.05L34.7-19.05Q32.77-19.05 31.55-18.26 30.32-17.48 29.74-16.5 29.15-15.53 29.15-15L29.15-15 29.15 0ZM51.84 0.65L51.84 0.65Q47.65 0.65 45.07-1.11 42.5-2.88 41.32-5.79 40.15-8.7 40.15-12.15L40.15-12.15Q40.15-15.78 41.48-18.81 42.82-21.85 45.41-23.68 48-25.5 51.75-25.5L51.75-25.5Q57.34-25.5 59.57-22.26 61.8-19.03 61.8-13.1L61.8-13.1Q61.8-12.58 61.77-11.78 61.75-10.98 61.7-10.4L61.7-10.4 46.7-10.4Q46.84-7.45 48.36-5.78 49.87-4.1 52.9-4.1L52.9-4.1Q54.45-4.1 56.22-4.79 58-5.48 58.84-6.45L58.84-6.45 60.84-1.7Q59.84-1.03 57.68-0.19 55.52 0.65 51.84 0.65ZM46.65-14.3L46.65-14.3 55.45-14.3Q55.45-16.93 54.98-18.31 54.52-19.7 53.72-20.23 52.92-20.75 51.9-20.75L51.9-20.75Q49.34-20.75 48.07-18.86 46.8-16.98 46.65-14.3ZM77.79 0.65L77.79 0.65Q73.59 0.65 71.02-1.11 68.44-2.88 67.27-5.79 66.09-8.7 66.09-12.15L66.09-12.15Q66.09-15.78 67.43-18.81 68.77-21.85 71.36-23.68 73.94-25.5 77.69-25.5L77.69-25.5Q83.29-25.5 85.52-22.26 87.74-19.03 87.74-13.1L87.74-13.1Q87.74-12.58 87.72-11.78 87.69-10.98 87.64-10.4L87.64-10.4 72.64-10.4Q72.79-7.45 74.31-5.78 75.82-4.1 78.84-4.1L78.84-4.1Q80.39-4.1 82.17-4.79 83.94-5.48 84.79-6.45L84.79-6.45 86.79-1.7Q85.79-1.03 83.63-0.19 81.47 0.65 77.79 0.65ZM72.59-14.3L72.59-14.3 81.39-14.3Q81.39-16.93 80.93-18.31 80.47-19.7 79.67-20.23 78.87-20.75 77.84-20.75L77.84-20.75Q75.29-20.75 74.02-18.86 72.74-16.98 72.59-14.3ZM109.29 10.9L103.24 10.9 103.24-24.9 109.19-24.9 109.19-24.1 108.69-20.6Q108.99-22.03 110.05-23.15 111.11-24.28 112.65-24.91 114.19-25.55 115.89-25.55L115.89-25.55Q120.84-25.55 123.11-22.09 125.39-18.63 125.39-12.8L125.39-12.8Q125.39-6.28 122.63-2.79 119.86 0.7 115.39 0.7L115.39 0.7Q112.61 0.7 110.95-1.03 109.29-2.75 108.69-4.95L108.69-4.95 109.29-0.25 109.29 10.9ZM113.94-4.25L113.94-4.25Q115.14-4.25 116.26-5.06 117.39-5.88 118.11-7.7 118.84-9.53 118.84-12.55L118.84-12.55Q118.84-16.75 117.4-18.6 115.96-20.45 114.04-20.45L114.04-20.45Q111.71-20.45 110.5-18.06 109.29-15.68 109.29-12.15L109.29-12.15Q109.29-8.63 110.53-6.44 111.76-4.25 113.94-4.25ZM137.44 0L131.34 0 131.34-38 137.44-38 137.44 0ZM149.18 0.7L149.18 0.7Q146.88 0.7 145.37-0.33 143.86-1.35 143.12-3.05 142.38-4.75 142.38-6.8L142.38-6.8Q142.38-7.95 142.97-9.33 143.56-10.7 145.06-11.95 146.56-13.2 149.28-14 152.01-14.8 156.28-14.8L156.28-14.8 156.28-15.95Q156.28-17.8 155.4-19.03 154.51-20.25 151.83-20.25L151.83-20.25Q149.88-20.25 148.02-19.59 146.16-18.93 145.28-17.95L145.28-17.95 143.28-22.75Q144.78-23.78 147.3-24.64 149.81-25.5 152.88-25.5L152.88-25.5Q156.58-25.5 158.63-24.38 160.68-23.25 161.51-21.19 162.33-19.13 162.33-16.35L162.33-16.35 162.33 0 156.98 0 156.53-3.55Q153.93 0.7 149.18 0.7ZM151.83-4.1L151.83-4.1Q152.96-4.1 154.25-5.01 155.53-5.93 156.28-7.35L156.28-7.35 156.28-10.9Q156.03-10.95 155.75-10.95 155.46-10.95 155.08-10.95L155.08-10.95Q153.71-10.95 152.2-10.64 150.68-10.33 149.63-9.55 148.58-8.78 148.58-7.4L148.58-7.4Q148.58-5.6 149.38-4.85 150.18-4.1 151.83-4.1ZM175.43 0L169.03 0 169.03-24.9 174.83-24.9 174.96-21.63Q175.93-23.13 177.68-24.31 179.43-25.5 182.28-25.5L182.28-25.5Q186.08-25.5 187.93-23.1 189.78-20.7 189.78-16.45L189.78-16.45 189.78 0 183.38 0 183.38-15.9Q183.38-17.98 182.51-19.26 181.63-20.55 179.83-20.55L179.83-20.55Q178.08-20.55 176.76-19.26 175.43-17.98 175.43-15.9L175.43-15.9 175.43 0ZM207.08 0.65L207.08 0.65Q202.88 0.65 200.3-1.11 197.73-2.88 196.55-5.79 195.38-8.7 195.38-12.15L195.38-12.15Q195.38-15.78 196.72-18.81 198.05-21.85 200.64-23.68 203.23-25.5 206.98-25.5L206.98-25.5Q212.58-25.5 214.8-22.26 217.03-19.03 217.03-13.1L217.03-13.1Q217.03-12.58 217-11.78 216.98-10.98 216.93-10.4L216.93-10.4 201.93-10.4Q202.08-7.45 203.59-5.78 205.1-4.1 208.13-4.1L208.13-4.1Q209.68-4.1 211.45-4.79 213.23-5.48 214.08-6.45L214.08-6.45 216.08-1.7Q215.08-1.03 212.92-0.19 210.75 0.65 207.08 0.65ZM201.88-14.3L201.88-14.3 210.68-14.3Q210.68-16.93 210.22-18.31 209.75-19.7 208.95-20.23 208.15-20.75 207.13-20.75L207.13-20.75Q204.58-20.75 203.3-18.86 202.03-16.98 201.88-14.3ZM231.13 0.75L231.13 0.75Q226.9 0.75 225.41-1.45 223.93-3.65 223.93-8.1L223.93-8.1 223.93-19.65 220.68-19.65 220.68-24.9 224.18-24.9 224.53-30.15 229.98-32.5 229.98-24.9 236.13-24.9 236.13-19.65 229.98-19.65 229.98-8.25Q229.98-6.08 230.59-5.24 231.2-4.4 232.28-4.4L232.28-4.4Q233.38-4.4 234.6-4.98 235.83-5.55 236.53-6.15L236.53-6.15 237.73-1.1Q236.95-0.55 235.71-0.14 234.48 0.28 233.21 0.51 231.95 0.75 231.13 0.75Z" opacity="1" transform="matrix(1,0,0,1,0,0)" fill="#528265" class="wordmark-text-0" data-fill-palette-color="primary" id="text-0"></path></svg></g></svg></g><g transform="matrix(1,0,0,1,0,45.5304750368176)"><svg viewBox="0 0 192 23.9013698630137" height="23.9013698630137" width="192"><g transform="matrix(1,0,0,1,0,0)"><svg width="192" viewBox="2.15 -36 291.97 36.35" height="23.9013698630137" data-palette-color="#528265"><path d="M35.15-25.8L31.65-24.5Q29.75-28.25 26.6-30.03 23.45-31.8 19.6-31.8L19.6-31.8Q15.8-31.8 12.75-30.05 9.7-28.3 7.95-25.1 6.2-21.9 6.2-17.5L6.2-17.5Q6.2-13.15 7.95-9.95 9.7-6.75 12.75-5 15.8-3.25 19.6-3.25L19.6-3.25Q22.45-3.25 24.9-4.23 27.35-5.2 29.15-7.03 30.95-8.85 31.9-11.4L31.9-11.4 31.9-15.45 19.9-15.45 19.9-18.7 35.95-18.7 35.95-11.2Q34.8-7.85 32.45-5.25 30.1-2.65 26.8-1.15 23.5 0.35 19.6 0.35L19.6 0.35Q15.9 0.35 12.73-0.95 9.55-2.25 7.18-4.63 4.8-7 3.48-10.28 2.15-13.55 2.15-17.5L2.15-17.5Q2.15-21.45 3.48-24.73 4.8-28 7.18-30.38 9.55-32.75 12.73-34.05 15.9-35.35 19.6-35.35L19.6-35.35Q23.05-35.35 26.08-34.23 29.1-33.1 31.45-30.98 33.8-28.85 35.15-25.8L35.15-25.8ZM42.35 0L42.35-25 45.8-25 46-21.35Q47-22.7 48.42-23.65 49.85-24.6 51.57-24.98 53.3-25.35 55.25-25L55.25-25 55.25-21.25Q53.15-21.65 51.47-21.25 49.8-20.85 48.6-19.75 47.4-18.65 46.75-16.98 46.1-15.3 46.1-13.1L46.1-13.1 46.1 0 42.35 0ZM70.34 0.35L70.34 0.35Q66.84 0.35 64.12-1.35 61.4-3.05 59.85-6 58.3-8.95 58.3-12.75L58.3-12.75Q58.3-16.4 59.85-19.25 61.4-22.1 64.09-23.73 66.8-25.35 70.25-25.35L70.25-25.35Q73.65-25.35 76.32-23.85 79-22.35 80.5-19.7 82-17.05 81.9-13.65L81.9-13.65Q81.9-13.1 81.84-12.5 81.8-11.9 81.75-11.2L81.75-11.2 62.4-11.2Q62.5-8.85 63.55-7.05 64.59-5.25 66.32-4.23 68.05-3.2 70.25-3.2L70.25-3.2Q73.15-3.2 75.17-4.3 77.2-5.4 78.09-7.45L78.09-7.45 81.34-6.15Q79.84-3 77-1.33 74.15 0.35 70.34 0.35ZM62.45-14.45L77.8-14.45Q77.84-16.6 76.87-18.25 75.9-19.9 74.15-20.85 72.4-21.8 70.09-21.8L70.09-21.8Q68.09-21.8 66.45-20.85 64.8-19.9 63.72-18.23 62.65-16.55 62.45-14.45L62.45-14.45ZM98.54 0.35L98.54 0.35Q95.04 0.35 92.32-1.35 89.59-3.05 88.04-6 86.49-8.95 86.49-12.75L86.49-12.75Q86.49-16.4 88.04-19.25 89.59-22.1 92.29-23.73 94.99-25.35 98.44-25.35L98.44-25.35Q101.84-25.35 104.52-23.85 107.19-22.35 108.69-19.7 110.19-17.05 110.09-13.65L110.09-13.65Q110.09-13.1 110.04-12.5 109.99-11.9 109.94-11.2L109.94-11.2 90.59-11.2Q90.69-8.85 91.74-7.05 92.79-5.25 94.52-4.23 96.24-3.2 98.44-3.2L98.44-3.2Q101.34-3.2 103.37-4.3 105.39-5.4 106.29-7.45L106.29-7.45 109.54-6.15Q108.04-3 105.19-1.33 102.34 0.35 98.54 0.35ZM90.64-14.45L105.99-14.45Q106.04-16.6 105.07-18.25 104.09-19.9 102.34-20.85 100.59-21.8 98.29-21.8L98.29-21.8Q96.29-21.8 94.64-20.85 92.99-19.9 91.92-18.23 90.84-16.55 90.64-14.45L90.64-14.45ZM116.24 0L116.24-25 119.69-25 119.89-21.45Q121.09-23.3 123.04-24.33 124.99-25.35 127.59-25.35L127.59-25.35Q130.44-25.35 132.59-24.13 134.74-22.9 135.94-20.48 137.14-18.05 137.14-14.4L137.14-14.4 137.14 0 133.39 0 133.39-13.95Q133.39-17.85 131.72-19.88 130.04-21.9 126.89-21.9L126.89-21.9Q123.64-21.9 121.82-19.75 119.99-17.6 119.99-13.4L119.99-13.4 119.99 0 116.24 0ZM162.79-17.8L171.14-17.8Q173.94-17.8 175.69-18.65 177.44-19.5 178.26-21.05 179.09-22.6 179.09-24.65L179.09-24.65Q179.09-27.9 177.21-29.7 175.34-31.5 171.14-31.5L171.14-31.5 162.79-31.5 162.79-17.8ZM183.04-24.65L183.04-24.65Q183.04-22.6 182.36-20.73 181.69-18.85 180.24-17.4 178.79-15.95 176.54-15.13 174.29-14.3 171.14-14.3L171.14-14.3 162.79-14.3 162.79 0 158.79 0 158.79-35 171.14-35Q175.24-35 177.86-33.6 180.49-32.2 181.76-29.85 183.04-27.5 183.04-24.65ZM188.98 0L188.98-36 192.73-36 192.73 0 188.98 0ZM219.48 0L216.03 0 215.73-4.5Q214.68-2.2 212.63-0.93 210.58 0.35 207.43 0.35L207.43 0.35Q204.73 0.35 202.83-0.5 200.93-1.35 199.91-2.93 198.88-4.5 198.88-6.65L198.88-6.65Q198.88-9.8 201.23-11.83 203.58-13.85 208.03-14.3L208.03-14.3 215.73-15.15 215.73-17.15Q215.73-19.25 214.18-20.53 212.63-21.8 209.98-21.8L209.98-21.8Q207.38-21.8 205.66-20.6 203.93-19.4 203.28-17.15L203.28-17.15 199.88-18.35Q200.88-21.65 203.56-23.5 206.23-25.35 210.08-25.35L210.08-25.35Q214.53-25.35 217.01-23.08 219.48-20.8 219.48-16.9L219.48-16.9 219.48 0ZM215.73-11.15L215.73-11.95 207.98-11.05Q205.48-10.75 204.18-9.68 202.88-8.6 202.88-6.85L202.88-6.85Q202.88-5.1 204.16-4.05 205.43-3 207.83-3L207.83-3Q210.58-3 212.33-4.1 214.08-5.2 214.91-7.08 215.73-8.95 215.73-11.15L215.73-11.15ZM226.78 0L226.78-25 230.23-25 230.43-21.45Q231.63-23.3 233.58-24.33 235.53-25.35 238.13-25.35L238.13-25.35Q240.98-25.35 243.13-24.13 245.28-22.9 246.48-20.48 247.68-18.05 247.68-14.4L247.68-14.4 247.68 0 243.93 0 243.93-13.95Q243.93-17.85 242.25-19.88 240.58-21.9 237.43-21.9L237.43-21.9Q234.18-21.9 232.35-19.75 230.53-17.6 230.53-13.4L230.53-13.4 230.53 0 226.78 0ZM265.43 0.35L265.43 0.35Q261.93 0.35 259.2-1.35 256.48-3.05 254.93-6 253.38-8.95 253.38-12.75L253.38-12.75Q253.38-16.4 254.93-19.25 256.48-22.1 259.18-23.73 261.88-25.35 265.33-25.35L265.33-25.35Q268.73-25.35 271.4-23.85 274.08-22.35 275.58-19.7 277.08-17.05 276.98-13.65L276.98-13.65Q276.98-13.1 276.93-12.5 276.88-11.9 276.83-11.2L276.83-11.2 257.48-11.2Q257.58-8.85 258.63-7.05 259.68-5.25 261.4-4.23 263.13-3.2 265.33-3.2L265.33-3.2Q268.23-3.2 270.25-4.3 272.28-5.4 273.18-7.45L273.18-7.45 276.43-6.15Q274.93-3 272.08-1.33 269.23 0.35 265.43 0.35ZM257.53-14.45L272.88-14.45Q272.93-16.6 271.95-18.25 270.98-19.9 269.23-20.85 267.48-21.8 265.18-21.8L265.18-21.8Q263.18-21.8 261.53-20.85 259.88-19.9 258.8-18.23 257.73-16.55 257.53-14.45L257.53-14.45ZM279.97-25L283.72-25 283.72-32 287.47-32 287.47-25 294.12-25 294.12-21.5 287.47-21.5 287.47-8.05Q287.47-5.75 288.45-4.7 289.42-3.65 290.95-3.45 292.47-3.25 294.12-3.45L294.12-3.45 294.12-0.2Q292.17 0.25 290.3 0.05 288.42-0.15 286.95-1.07 285.47-2 284.6-3.7 283.72-5.4 283.72-8.05L283.72-8.05 283.72-21.5 279.97-21.5 279.97-25Z" opacity="1" transform="matrix(1,0,0,1,0,0)" fill="#528265" class="slogan-text-1" data-fill-palette-color="secondary" id="text-1"></path></svg></g></svg></g></svg></g></svg></g><g transform="matrix(1,0,0,1,53.8859788335793,0)"><svg viewBox="0 0 84.2280423328414 95.95480965156688" height="95.95480965156688" width="84.2280423328414"><g><svg xmlns="http://www.w3.org/2000/svg" xmlns:xlink="http://www.w3.org/1999/xlink" version="1.0" x="0" y="0" viewBox="0.0003873846944192072 0 87.77710890974538 99.99799999999999" enable-background="new 0 0 87.778 100" xml:space="preserve" width="84.2280423328414" height="95.95480965156688" class="icon-icon-0" data-fill-palette-color="accent" id="icon-0"><g fill="#528265" data-fill-palette-color="accent"><path d="M70.307 14.579l-0.214-0.081-0.123-0.191C66.111 8.318 59.805 3.77 52.212 1.5 48.882 0.505 45.322 0 41.63 0 29.613 0 18.269 5.316 13.4 13.229l-0.114 0.184L13.089 13.5c-5.724 2.504-10.272 8.227-12.17 15.307C-1.14 36.49 0.299 44.455 4.867 50.66c3.425 4.653 7.066 6.915 11.133 6.915 1.584 0 3.238-0.336 5.032-1.019 4.985-2.353 7.275-5.136 7.358-5.239 0.126-0.162 0.323-0.267 0.545-0.267 0.382 0 0.691 0.31 0.691 0.691 0 0.621-2.333 2.68-4.266 3.972-0.304 0.203-0.635 0.415-0.991 0.63 2.243 0.19 6.034 0.447 10.149 0.447 8.055 0 13.891-0.976 16.877-2.822l0.364-0.225 0.363 0.226c3.448 2.14 7.985 2.645 9.924 2.86 0.725 0.081 0.943 0.105 1.133 0.202 2.975 1.524 6.126 2.33 9.114 2.33 7.092 0 12.683-4.387 14.591-11.448C89.453 38.412 87.223 20.96 70.307 14.579z" fill="#528265" data-fill-palette-color="accent"></path><path d="M51.961 77.67c1.24-6.472 4.543-14.176 8.498-19.641-2.279-0.307-5.768-0.965-8.702-2.669-0.041 0.023-0.087 0.044-0.129 0.067-0.882 2.965-2.245 6.166-3.409 9.211-0.832 2.179-1.223 7.187-2.039 11.41-0.033-0.104-0.526-1.587-0.56-1.685-1.501-4.401-2.728-7.654-3.422-12.266-0.255-1.685-0.071-3.162 0.532-4.33-2.398 0.27-5.138 0.405-8.211 0.405-3.728 0-7.192-0.208-9.508-0.39 1.806 2.253 3.841 4.404 6.062 6.65 6.163 6.234 9.017 14.276 10.333 22.817 0.211 1.364 0.648 3.628 0.949 6.422 0.301 2.793-0.453 4.987-0.648 6.327h8.054c-0.159-1.408-0.643-3.808-0.499-6.609C49.406 90.588 51.504 80.055 51.961 77.67z" fill="#528265" data-fill-palette-color="accent"></path></g></svg></g></svg></g><g></g></svg></g></svg></g></svg></g></svg></g><defs></defs></svg><rect width="320" height="360" fill="none" stroke="none" visibility="hidden"></rect></g></svg></g></svg>